<?xml version="1.0" encoding="UTF-8" standalone="no"?>
<!DOCTYPE svg PUBLIC "-//W3C//DTD SVG 1.1//EN" "http://www.w3.org/Graphics/SVG/1.1/DTD/svg11.dtd">
<svg version="1.1" xmlns="http://www.w3.org/2000/svg" xmlns:xlink="http://www.w3.org/1999/xlink" preserveAspectRatio="xMidYMid meet" viewBox="0 0 640 640" width="640" height="640"><defs><path d="M226.93 327.13C226.93 397.62 284.83 454.85 356.14 454.85C427.45 454.85 485.35 397.62 485.35 327.13C485.35 256.64 427.45 199.41 356.14 199.41C284.83 199.41 226.93 256.64 226.93 327.13Z" id="a29Cw7sa48"></path><linearGradient id="gradientc2HZCfmQ1U" gradientUnits="userSpaceOnUse" x1="356.14" y1="199.41" x2="356.14" y2="454.85"><stop style="stop-color: #ff7000;stop-opacity: 1" offset="0%"></stop><stop style="stop-color: #ff6000;stop-opacity: 1" offset="100%"></stop></linearGradient><path d="M294.5 303C298.64 303 302 306.36 302 310.5C302 319 302 337 302 345.5C302 349.64 298.64 353 294.5 353C290 353 284 353 279.5 353C275.36 353 272 349.64 272 345.5C272 337 272 319 272 310.5C272 306.36 275.36 303 279.5 303C284 303 290 303 294.5 303Z" id="a2LqqtbJvH"></path><path d="M430.06 300C435.58 300 440.06 304.48 440.06 310C440.06 318.59 440.06 334.38 440.06 342.97C440.06 348.49 435.58 352.97 430.06 352.97C424.06 352.97 416.06 352.97 410.06 352.97C404.54 352.97 400.06 348.49 400.06 342.97C400.06 334.38 400.06 318.59 400.06 310C400.06 304.48 404.54 300 410.06 300C416.06 300 424.06 300 430.06 300Z" id="a1vCmVkMX6"></path><path d="M410.25 272.97C415.63 272.97 420 277.34 420 282.72C420 304.18 420 358.79 420 380.25C420 385.63 415.63 390 410.25 390C386.2 390 323.8 390 299.75 390C294.37 390 290 385.63 290 380.25C290 358.79 290 304.18 290 282.72C290 277.34 294.37 272.97 299.75 272.97C323.8 272.97 386.2 272.97 410.25 272.97Z" id="b20x8oG7Xi"></path><path d="M280.05 295.84L289.95 295.84L289.95 364.16L280.05 364.16L280.05 295.84Z" id="b1izYYs2xU"></path><linearGradient id="gradientfZCG03dFl" gradientUnits="userSpaceOnUse" x1="285" y1="295.84" x2="285" y2="364.16"><stop style="stop-color: #ff6a01;stop-opacity: 1" offset="0%"></stop><stop style="stop-color: #ff6700;stop-opacity: 1" offset="100%"></stop></linearGradient><path d="M420.1 291.68L430 291.68L430 360L420.1 360L420.1 291.68Z" id="a4xp3AyOFn"></path><linearGradient id="gradientc3RHKeHyzR" gradientUnits="userSpaceOnUse" x1="425.05" y1="291.68" x2="425.05" y2="360"><stop style="stop-color: #ff6a00;stop-opacity: 1" offset="0%"></stop><stop style="stop-color: #ff6600;stop-opacity: 1" offset="100%"></stop></linearGradient><path d="M340 308.22C340 314.72 334.88 320 328.56 320C322.25 320 317.13 314.72 317.13 308.22C317.13 301.72 322.25 296.44 328.56 296.44C334.88 296.44 340 301.72 340 308.22Z" id="eh2kUiOoF"></path><path d="M390 308.22C390 314.72 384.88 320 378.56 320C372.25 320 367.13 314.72 367.13 308.22C367.13 301.72 372.25 296.44 378.56 296.44C384.88 296.44 390 301.72 390 308.22Z" id="a2Y66jrDZq"></path><path d="M312.57 350L332.57 350L332.57 360L312.57 360L312.57 350Z" id="a1pLgVhbn8"></path><path d="M372.08 350L392.08 350L392.08 360L372.08 360L372.08 350Z" id="f580bAd1Hk"></path><path d="M344 350L364 350L364 360L344 360L344 350Z" id="a27mvsL3sN"></path><path d="M355 252.73C357.76 252.73 360 254.97 360 257.73C360 266.04 360 285.96 360 294.27C360 297.03 357.76 299.27 355 299.27C354 299.27 356 299.27 355 299.27C352.24 299.27 350 297.03 350 294.27C350 285.96 350 266.04 350 257.73C350 254.97 352.24 252.73 355 252.73C356 252.73 354 252.73 355 252.73Z" id="e3aX6NSeTN"></path></defs><g><g><g><use xlink:href="#a29Cw7sa48" opacity="1" fill="url(#gradientc2HZCfmQ1U)"></use></g><g><use xlink:href="#a2LqqtbJvH" opacity="1" fill="#fefffc" fill-opacity="1"></use></g><g><use xlink:href="#a1vCmVkMX6" opacity="1" fill="#ffffff" fill-opacity="1"></use></g><g><use xlink:href="#b20x8oG7Xi" opacity="1" fill="#ffffff" fill-opacity="1"></use></g><g><use xlink:href="#b1izYYs2xU" opacity="1" fill="url(#gradientfZCG03dFl)"></use><g><use xlink:href="#b1izYYs2xU" opacity="1" fill-opacity="0" stroke="#ffffff" stroke-width="0" stroke-opacity="1"></use></g></g><g><use xlink:href="#a4xp3AyOFn" opacity="1" fill="url(#gradientc3RHKeHyzR)"></use></g><g><use xlink:href="#eh2kUiOoF" opacity="1" fill="#ff6000" fill-opacity="1"></use></g><g><use xlink:href="#a2Y66jrDZq" opacity="1" fill="#ff6000" fill-opacity="1"></use></g><g><use xlink:href="#a1pLgVhbn8" opacity="1" fill="#ff6000" fill-opacity="1"></use></g><g><use xlink:href="#f580bAd1Hk" opacity="1" fill="#ff6000" fill-opacity="1"></use></g><g><use xlink:href="#a27mvsL3sN" opacity="1" fill="#ff6000" fill-opacity="1"></use></g><g><use xlink:href="#e3aX6NSeTN" opacity="1" fill="#ffffff" fill-opacity="1"></use></g></g></g></svg>